{
    "asset" : {
        "generator" : "Khronos glTF Blender I/O v1.5.17",
        "version" : "2.0"
    },
    "scene" : 0,
    "scenes" : [
        {
            "name" : "Scene",
            "nodes" : [
                0
            ]
        }
    ],
    "nodes" : [
        {
            "mesh" : 0,
            "name" : "Plane"
        }
    ],
    "animations" : [
        {
            "channels" : [
                {
                    "sampler" : 0,
                    "target" : {
                        "node" : 0,
                        "path" : "translation"
                    }
                },
                {
                    "sampler" : 1,
                    "target" : {
                        "node" : 0,
                        "path" : "rotation"
                    }
                },
                {
                    "sampler" : 2,
                    "target" : {
                        "node" : 0,
                        "path" : "scale"
                    }
                }
            ],
            "name" : "PlaneAction",
            "samplers" : [
                {
                    "input" : 40,
                    "interpolation" : "LINEAR",
                    "output" : 41
                },
                {
                    "input" : 40,
                    "interpolation" : "LINEAR",
                    "output" : 42
                },
                {
                    "input" : 40,
                    "interpolation" : "LINEAR",
                    "output" : 43
                }
            ]
        }
    ],
    "materials" : [
        {
            "doubleSided" : true,
            "name" : "Plastic",
            "pbrMetallicRoughness" : {
                "metallicFactor" : 0,
                "roughnessFactor" : 0.5
            }
        },
        {
            "doubleSided" : true,
            "name" : "M\u00e9tal",
            "pbrMetallicRoughness" : {
                "baseColorFactor" : [
                    0.8768535852432251,
                    1,
                    0.8696781992912292,
                    1
                ],
                "metallicFactor" : 0,
                "roughnessFactor" : 0.5
            }
        },
        {
            "doubleSided" : true,
            "name" : "Or",
            "pbrMetallicRoughness" : {
                "baseColorFactor" : [
                    0.7991029620170593,
                    0.4910208582878113,
                    0.07227188348770142,
                    1
                ],
                "metallicFactor" : 0,
                "roughnessFactor" : 0.5
            }
        },
        {
            "doubleSided" : true,
            "name" : "Vis",
            "pbrMetallicRoughness" : {
                "baseColorFactor" : [
                    0.3419145345687866,
                    0.2541520297527313,
                    0.24620142579078674,
                    1
                ],
                "metallicFactor" : 0,
                "roughnessFactor" : 0.5
            }
        },
        {
            "doubleSided" : true,
            "name" : "Material.001",
            "pbrMetallicRoughness" : {
                "baseColorFactor" : [
                    0.8000000715255737,
                    0,
                    0.20411528646945953,
                    1
                ],
                "metallicFactor" : 0,
                "roughnessFactor" : 0.5
            }
        },
        {
            "doubleSided" : true,
            "name" : "Material.002",
            "pbrMetallicRoughness" : {
                "baseColorFactor" : [
                    0.02014745958149433,
                    0.8000000715255737,
                    0.3603169918060303,
                    1
                ],
                "metallicFactor" : 0,
                "roughnessFactor" : 0.5
            }
        },
        {
            "doubleSided" : true,
            "name" : "Material.003",
            "pbrMetallicRoughness" : {
                "baseColorFactor" : [
                    0.3452291190624237,
                    0.8000000715255737,
                    0.004895355552434921,
                    1
                ],
                "metallicFactor" : 0,
                "roughnessFactor" : 0.5
            }
        },
        {
            "doubleSided" : true,
            "name" : "Material.004",
            "pbrMetallicRoughness" : {
                "baseColorFactor" : [
                    0.004584562033414841,
                    0.03178425878286362,
                    0.8000000715255737,
                    1
                ],
                "metallicFactor" : 0,
                "roughnessFactor" : 0.5
            }
        },
        {
            "doubleSided" : true,
            "name" : "Material.005",
            "pbrMetallicRoughness" : {
                "baseColorFactor" : [
                    0,
                    0.27535542845726013,
                    0.8000000715255737,
                    1
                ],
                "metallicFactor" : 0,
                "roughnessFactor" : 0.5
            }
        },
        {
            "doubleSided" : true,
            "name" : "Material.006",
            "pbrMetallicRoughness" : {
                "baseColorFactor" : [
                    0.21783342957496643,
                    0.8000000715255737,
                    0.10546593368053436,
                    1
                ],
                "metallicFactor" : 0,
                "roughnessFactor" : 0.5
            }
        }
    ],
    "meshes" : [
        {
            "name" : "Plane",
            "primitives" : [
                {
                    "attributes" : {
                        "POSITION" : 0,
                        "NORMAL" : 1,
                        "TEXCOORD_0" : 2
                    },
                    "indices" : 3,
                    "material" : 0
                },
                {
                    "attributes" : {
                        "POSITION" : 4,
                        "NORMAL" : 5,
                        "TEXCOORD_0" : 6
                    },
                    "indices" : 7,
                    "material" : 1
                },
                {
                    "attributes" : {
                        "POSITION" : 8,
                        "NORMAL" : 9,
                        "TEXCOORD_0" : 10
                    },
                    "indices" : 11,
                    "material" : 2
                },
                {
                    "attributes" : {
                        "POSITION" : 12,
                        "NORMAL" : 13,
                        "TEXCOORD_0" : 14
                    },
                    "indices" : 15,
                    "material" : 3
                },
                {
                    "attributes" : {
                        "POSITION" : 16,
                        "NORMAL" : 17,
                        "TEXCOORD_0" : 18
                    },
                    "indices" : 19,
                    "material" : 4
                },
                {
                    "attributes" : {
                        "POSITION" : 20,
                        "NORMAL" : 21,
                        "TEXCOORD_0" : 22
                    },
                    "indices" : 23,
                    "material" : 5
                },
                {
                    "attributes" : {
                        "POSITION" : 24,
                        "NORMAL" : 25,
                        "TEXCOORD_0" : 26
                    },
                    "indices" : 27,
                    "material" : 6
                },
                {
                    "attributes" : {
                        "POSITION" : 28,
                        "NORMAL" : 29,
                        "TEXCOORD_0" : 30
                    },
                    "indices" : 31,
                    "material" : 7
                },
                {
                    "attributes" : {
                        "POSITION" : 32,
                        "NORMAL" : 33,
                        "TEXCOORD_0" : 34
                    },
                    "indices" : 35,
                    "material" : 8
                },
                {
                    "attributes" : {
                        "POSITION" : 36,
                        "NORMAL" : 37,
                        "TEXCOORD_0" : 38
                    },
                    "indices" : 39,
                    "material" : 9
                }
            ]
        }
    ],
    "accessors" : [
        {
            "bufferView" : 0,
            "componentType" : 5126,
            "count" : 395,
            "max" : [
                0.18672208487987518,
                2.859645366668701,
                -1.0362356901168823
            ],
            "min" : [
                -0.6465328931808472,
                2.5834078788757324,
                -1.6109477281570435
            ],
            "type" : "VEC3"
        },
        {
            "bufferView" : 1,
            "componentType" : 5126,
            "count" : 395,
            "type" : "VEC3"
        },
        {
            "bufferView" : 2,
            "componentType" : 5126,
            "count" : 395,
            "type" : "VEC2"
        },
        {
            "bufferView" : 3,
            "componentType" : 5123,
            "count" : 1068,
            "type" : "SCALAR"
        },
        {
            "bufferView" : 4,
            "componentType" : 5126,
            "count" : 3486,
            "max" : [
                1.1871815919876099,
                2.6871814727783203,
                1.8004045486450195
            ],
            "min" : [
                -1.1871815919876099,
                0,
                -3.002988576889038
            ],
            "type" : "VEC3"
        },
        {
            "bufferView" : 5,
            "componentType" : 5126,
            "count" : 3486,
            "type" : "VEC3"
        },
        {
            "bufferView" : 6,
            "componentType" : 5126,
            "count" : 3486,
            "type" : "VEC2"
        },
        {
            "bufferView" : 7,
            "componentType" : 5123,
            "count" : 13500,
            "type" : "SCALAR"
        },
        {
            "bufferView" : 8,
            "componentType" : 5126,
            "count" : 201,
            "max" : [
                -0.8891438245773315,
                2.767817497253418,
                -2.9258737564086914
            ],
            "min" : [
                -1.1105996370315552,
                2.698099136352539,
                -3.141777276992798
            ],
            "type" : "VEC3"
        },
        {
            "bufferView" : 9,
            "componentType" : 5126,
            "count" : 201,
            "type" : "VEC3"
        },
        {
            "bufferView" : 10,
            "componentType" : 5126,
            "count" : 201,
            "type" : "VEC2"
        },
        {
            "bufferView" : 11,
            "componentType" : 5123,
            "count" : 573,
            "type" : "SCALAR"
        },
        {
            "bufferView" : 12,
            "componentType" : 5126,
            "count" : 6125,
            "max" : [
                0.9112496376037598,
                2.703268051147461,
                0.8433449268341064
            ],
            "min" : [
                -0.9158247709274292,
                0.6833972334861755,
                -1.6984986066818237
            ],
            "type" : "VEC3"
        },
        {
            "bufferView" : 13,
            "componentType" : 5126,
            "count" : 6125,
            "type" : "VEC3"
        },
        {
            "bufferView" : 14,
            "componentType" : 5126,
            "count" : 6125,
            "type" : "VEC2"
        },
        {
            "bufferView" : 15,
            "componentType" : 5123,
            "count" : 9168,
            "type" : "SCALAR"
        },
        {
            "bufferView" : 16,
            "componentType" : 5126,
            "count" : 4657,
            "max" : [
                1.3643215894699097,
                3.2100090980529785,
                -1.7432289123535156
            ],
            "min" : [
                -1.3643215894699097,
                0.13567829132080078,
                -3.6912412643432617
            ],
            "type" : "VEC3"
        },
        {
            "bufferView" : 17,
            "componentType" : 5126,
            "count" : 4657,
            "type" : "VEC3"
        },
        {
            "bufferView" : 18,
            "componentType" : 5126,
            "count" : 4657,
            "type" : "VEC2"
        },
        {
            "bufferView" : 19,
            "componentType" : 5123,
            "count" : 12576,
            "type" : "SCALAR"
        },
        {
            "bufferView" : 20,
            "componentType" : 5126,
            "count" : 66,
            "max" : [
                1.1693806648254395,
                2.6693806648254395,
                1.5611745119094849
            ],
            "min" : [
                -1.1693806648254395,
                0.33061903715133667,
                0.9567620754241943
            ],
            "type" : "VEC3"
        },
        {
            "bufferView" : 21,
            "componentType" : 5126,
            "count" : 66,
            "type" : "VEC3"
        },
        {
            "bufferView" : 22,
            "componentType" : 5126,
            "count" : 66,
            "type" : "VEC2"
        },
        {
            "bufferView" : 23,
            "componentType" : 5123,
            "count" : 192,
            "type" : "SCALAR"
        },
        {
            "bufferView" : 24,
            "componentType" : 5126,
            "count" : 1139,
            "max" : [
                0.6679240465164185,
                3.3225185871124268,
                -2.354184150695801
            ],
            "min" : [
                -0.6679240465164185,
                3.1786341667175293,
                -3.68807315826416
            ],
            "type" : "VEC3"
        },
        {
            "bufferView" : 25,
            "componentType" : 5126,
            "count" : 1139,
            "type" : "VEC3"
        },
        {
            "bufferView" : 26,
            "componentType" : 5126,
            "count" : 1139,
            "type" : "VEC2"
        },
        {
            "bufferView" : 27,
            "componentType" : 5123,
            "count" : 2748,
            "type" : "SCALAR"
        },
        {
            "bufferView" : 28,
            "componentType" : 5126,
            "count" : 309,
            "max" : [
                0.8457104563713074,
                3.105833053588867,
                1.8243284225463867
            ],
            "min" : [
                -0.8457104563713074,
                0.6542895436286926,
                -3.329756736755371
            ],
            "type" : "VEC3"
        },
        {
            "bufferView" : 29,
            "componentType" : 5126,
            "count" : 309,
            "type" : "VEC3"
        },
        {
            "bufferView" : 30,
            "componentType" : 5126,
            "count" : 309,
            "type" : "VEC2"
        },
        {
            "bufferView" : 31,
            "componentType" : 5123,
            "count" : 792,
            "type" : "SCALAR"
        },
        {
            "bufferView" : 32,
            "componentType" : 5126,
            "count" : 1521,
            "max" : [
                1.177064299583435,
                2.6770644187927246,
                -1.7594337463378906
            ],
            "min" : [
                -1.177064299583435,
                0,
                -3.263745069503784
            ],
            "type" : "VEC3"
        },
        {
            "bufferView" : 33,
            "componentType" : 5126,
            "count" : 1521,
            "type" : "VEC3"
        },
        {
            "bufferView" : 34,
            "componentType" : 5126,
            "count" : 1521,
            "type" : "VEC2"
        },
        {
            "bufferView" : 35,
            "componentType" : 5123,
            "count" : 4320,
            "type" : "SCALAR"
        },
        {
            "bufferView" : 36,
            "componentType" : 5126,
            "count" : 253,
            "max" : [
                0.5315648913383484,
                2.855095386505127,
                -0.9818745851516724
            ],
            "min" : [
                -0.5315648913383484,
                2.2720866203308105,
                -1.7166800498962402
            ],
            "type" : "VEC3"
        },
        {
            "bufferView" : 37,
            "componentType" : 5126,
            "count" : 253,
            "type" : "VEC3"
        },
        {
            "bufferView" : 38,
            "componentType" : 5126,
            "count" : 253,
            "type" : "VEC2"
        },
        {
            "bufferView" : 39,
            "componentType" : 5123,
            "count" : 624,
            "type" : "SCALAR"
        },
        {
            "bufferView" : 40,
            "componentType" : 5126,
            "count" : 251,
            "max" : [
                10.416666666666666
            ],
            "min" : [
                0
            ],
            "type" : "SCALAR"
        },
        {
            "bufferView" : 41,
            "componentType" : 5126,
            "count" : 251,
            "type" : "VEC3"
        },
        {
            "bufferView" : 42,
            "componentType" : 5126,
            "count" : 251,
            "type" : "VEC4"
        },
        {
            "bufferView" : 43,
            "componentType" : 5126,
            "count" : 251,
            "type" : "VEC3"
        }
    ],
    "bufferViews" : [
        {
            "buffer" : 0,
            "byteLength" : 4740,
            "byteOffset" : 0
        },
        {
            "buffer" : 0,
            "byteLength" : 4740,
            "byteOffset" : 4740
        },
        {
            "buffer" : 0,
            "byteLength" : 3160,
            "byteOffset" : 9480
        },
        {
            "buffer" : 0,
            "byteLength" : 2136,
            "byteOffset" : 12640
        },
        {
            "buffer" : 0,
            "byteLength" : 41832,
            "byteOffset" : 14776
        },
        {
            "buffer" : 0,
            "byteLength" : 41832,
            "byteOffset" : 56608
        },
        {
            "buffer" : 0,
            "byteLength" : 27888,
            "byteOffset" : 98440
        },
        {
            "buffer" : 0,
            "byteLength" : 27000,
            "byteOffset" : 126328
        },
        {
            "buffer" : 0,
            "byteLength" : 2412,
            "byteOffset" : 153328
        },
        {
            "buffer" : 0,
            "byteLength" : 2412,
            "byteOffset" : 155740
        },
        {
            "buffer" : 0,
            "byteLength" : 1608,
            "byteOffset" : 158152
        },
        {
            "buffer" : 0,
            "byteLength" : 1146,
            "byteOffset" : 159760
        },
        {
            "buffer" : 0,
            "byteLength" : 73500,
            "byteOffset" : 160908
        },
        {
            "buffer" : 0,
            "byteLength" : 73500,
            "byteOffset" : 234408
        },
        {
            "buffer" : 0,
            "byteLength" : 49000,
            "byteOffset" : 307908
        },
        {
            "buffer" : 0,
            "byteLength" : 18336,
            "byteOffset" : 356908
        },
        {
            "buffer" : 0,
            "byteLength" : 55884,
            "byteOffset" : 375244
        },
        {
            "buffer" : 0,
            "byteLength" : 55884,
            "byteOffset" : 431128
        },
        {
            "buffer" : 0,
            "byteLength" : 37256,
            "byteOffset" : 487012
        },
        {
            "buffer" : 0,
            "byteLength" : 25152,
            "byteOffset" : 524268
        },
        {
            "buffer" : 0,
            "byteLength" : 792,
            "byteOffset" : 549420
        },
        {
            "buffer" : 0,
            "byteLength" : 792,
            "byteOffset" : 550212
        },
        {
            "buffer" : 0,
            "byteLength" : 528,
            "byteOffset" : 551004
        },
        {
            "buffer" : 0,
            "byteLength" : 384,
            "byteOffset" : 551532
        },
        {
            "buffer" : 0,
            "byteLength" : 13668,
            "byteOffset" : 551916
        },
        {
            "buffer" : 0,
            "byteLength" : 13668,
            "byteOffset" : 565584
        },
        {
            "buffer" : 0,
            "byteLength" : 9112,
            "byteOffset" : 579252
        },
        {
            "buffer" : 0,
            "byteLength" : 5496,
            "byteOffset" : 588364
        },
        {
            "buffer" : 0,
            "byteLength" : 3708,
            "byteOffset" : 593860
        },
        {
            "buffer" : 0,
            "byteLength" : 3708,
            "byteOffset" : 597568
        },
        {
            "buffer" : 0,
            "byteLength" : 2472,
            "byteOffset" : 601276
        },
        {
            "buffer" : 0,
            "byteLength" : 1584,
            "byteOffset" : 603748
        },
        {
            "buffer" : 0,
            "byteLength" : 18252,
            "byteOffset" : 605332
        },
        {
            "buffer" : 0,
            "byteLength" : 18252,
            "byteOffset" : 623584
        },
        {
            "buffer" : 0,
            "byteLength" : 12168,
            "byteOffset" : 641836
        },
        {
            "buffer" : 0,
            "byteLength" : 8640,
            "byteOffset" : 654004
        },
        {
            "buffer" : 0,
            "byteLength" : 3036,
            "byteOffset" : 662644
        },
        {
            "buffer" : 0,
            "byteLength" : 3036,
            "byteOffset" : 665680
        },
        {
            "buffer" : 0,
            "byteLength" : 2024,
            "byteOffset" : 668716
        },
        {
            "buffer" : 0,
            "byteLength" : 1248,
            "byteOffset" : 670740
        },
        {
            "buffer" : 0,
            "byteLength" : 1004,
            "byteOffset" : 671988
        },
        {
            "buffer" : 0,
            "byteLength" : 3012,
            "byteOffset" : 672992
        },
        {
            "buffer" : 0,
            "byteLength" : 4016,
            "byteOffset" : 676004
        },
        {
            "buffer" : 0,
            "byteLength" : 3012,
            "byteOffset" : 680020
        }
    ],
    "buffers" : [
        {
            "byteLength" : 683032,
            "uri" : "data:application/octet-stream;base64,"
        }
    ]
}
